<?xml version="1.0" encoding="utf-8"?>
<!-- Generator: Adobe Illustrator 19.1.0, SVG Export Plug-In . SVG Version: 6.00 Build 0)  -->
<svg version="1.1" id="Capa_1" xmlns="http://www.w3.org/2000/svg" xmlns:xlink="http://www.w3.org/1999/xlink" x="0px" y="0px"
	 viewBox="0 0 793.7 180" style="enable-background:new 0 0 793.7 180;" xml:space="preserve">
<style type="text/css">
	.st0{fill:#B1B3B5;}
	.st1{fill:#D0D2D3;}
	.st2{fill:#E6E7E8;}
	.st3{fill:#EC1C24;}
	.st4{fill:#58595B;}
	.st5{fill:#D1232A;}
</style>
<g>
	<g>
		<rect x="5" y="10.4" class="st0" width="53.1" height="53.1"/>
		<rect x="5" y="63.5" class="st1" width="53.1" height="53.1"/>
		<rect x="5" y="116.6" class="st2" width="53.1" height="53.1"/>
		<rect x="58.1" y="10.4" class="st2" width="53.1" height="53.1"/>
		<rect x="111.2" y="10.4" class="st3" width="53.1" height="53.1"/>
		<rect x="58.1" y="63.5" class="st0" width="53.1" height="53.1"/>
		<rect x="58.1" y="116.6" class="st1" width="53.1" height="53.1"/>
		<rect x="111.2" y="63.5" class="st1" width="53.1" height="53.1"/>
		<rect x="111.2" y="116.6" class="st2" width="53.1" height="53.1"/>
	</g>
	<g>
		<path class="st4" d="M683,122h25.3l26.1-43.5l25.7,43.5h26.4l-36.6-58l33.6-53.6h-24l-23.8,39.8l-23.3-39.8h-25.9L719.6,64
			L683,122z M605.5,122h66.2v-17.6h-43.8V73.1h39.8V55.5h-39.8V28h43.5V10.4h-65.9V122z M588,101.7c-5.3,2.7-15.7,4.6-24.5,4.6
			c-23.8,0-37.9-17.1-37.9-39.8c0-22.9,14.4-40.4,37.4-40.4c8,0,15.7,1.1,24.1,5.9l1.6-18.9c-8.2-3.2-17.9-4.6-25.3-4.6
			c-37.9,0-61.2,21.4-61.2,59.6c0,37.7,25.1,55.8,61.2,55.8c8.5,0,17.3-1.6,25.4-3.5L588,101.7z M390.4,122h23.2l9.8-25.6h45.2
			l9.6,25.6H503L459.2,10.4h-25.3L390.4,122z M462.4,78.8h-32.6l16.1-46h0.3L462.4,78.8z M318.8,122h65.7v-17.6h-43.3v-94h-22.4V122
			z M228,122h22.4V79.6h9.4c24,0,43-9.4,43-35.5c0-26.7-22.2-33.7-46.5-33.7H228V122z M250.4,28h7.8c11.5,0,21.3,4.5,21.3,17.4
			c0,13-10.1,16.6-21.3,16.6h-7.8V28z M186.8,122h22.4V10.4h-22.4V122z"/>
		<path class="st5" d="M764.6,169.8h21.8v-6.4h-13.3v-25.8h-8.6V169.8z M747.4,156.8h-8.1l4.1-12.6h0.1L747.4,156.8z M726.1,169.8
			h8.7l2.5-6.9h12.1l2.4,6.9h9.4l-12.4-32.2h-10.5L726.1,169.8z M693,169.8h7.9l-0.3-22h0.1l11.3,22h10.6v-32.2h-7.8l0.1,21.9h-0.1
			l-10.9-21.9H693V169.8z M664.6,153.7c0-5.6,2.1-10.3,7.3-10.3c5.2,0,7.3,4.7,7.3,10.3c0,5.3-2.1,10.3-7.3,10.3
			C666.7,164,664.6,159,664.6,153.7 M655.7,153.7c0,10.2,5.6,16.6,16.1,16.6s16.1-6.4,16.1-16.6c0-10.3-5.5-16.6-16.1-16.6
			C661.3,137,655.7,143.3,655.7,153.7 M642,169.8h8.6v-32.2H642V169.8z M637.2,162.3c-2.4,0.9-5.2,1.7-8,1.7
			c-6.3,0-10.7-3.8-10.7-10.1c0-6,4-10.4,10.1-10.4c3,0,5.6,0.7,8.4,2.3l0.7-7c-3.1-0.9-6.3-1.7-9.5-1.7c-10.6,0-18.4,5.6-18.4,16.8
			c0,12.2,9.9,16.5,18.5,16.5c4.4,0,7.1-0.7,9.5-1.3L637.2,162.3z M593.6,156.8h-8.1l4.2-12.6h0.1L593.6,156.8z M572.3,169.8h8.7
			l2.5-6.9h12.1l2.4,6.9h9.4L595,137.6h-10.5L572.3,169.8z M539.2,169.8h7.9l-0.3-22h0.1l11.3,22h10.6v-32.2h-7.8l0.1,21.9H561
			l-10.9-21.9h-10.9V169.8z M496.7,153.7c0-5.6,2.1-10.3,7.3-10.3c5.2,0,7.3,4.7,7.3,10.3c0,5.3-2.1,10.3-7.3,10.3
			C498.8,164,496.7,159,496.7,153.7 M487.8,153.7c0,10.2,5.6,16.6,16.1,16.6c10.5,0,16.1-6.4,16.1-16.6c0-10.3-5.5-16.6-16.1-16.6
			C493.4,137,487.8,143.3,487.8,153.7 M484.7,162.3c-2.3,0.9-5.2,1.7-8,1.7c-6.3,0-10.7-3.8-10.7-10.1c0-6,4-10.4,10.1-10.4
			c3,0,5.6,0.7,8.4,2.3l0.7-7c-3.1-0.9-6.3-1.7-9.6-1.7c-10.6,0-18.4,5.6-18.4,16.8c0,12.2,9.9,16.5,18.5,16.5
			c4.4,0,7.1-0.7,9.5-1.3L484.7,162.3z M443.3,169.8h8.6v-32.2h-8.6V169.8z M436.7,151h-13.3v6.1h5v6.4c-0.8,0.4-1.9,0.6-3,0.6
			c-6.3,0-10.7-3.8-10.7-10.1c0-7.5,5.7-10.4,12.7-10.4c2,0,5.2,0.5,7.8,2.1l0.7-7c-3.1-1.2-7.6-1.4-9.7-1.4
			c-11.8,0-20.3,4.7-20.3,16.8c0,12.2,9.9,16.5,18.5,16.5c3,0,7-0.1,12.4-1.5V151z M382.3,135.9l5.8,0l5.9-6.6h-8.6L382.3,135.9z
			 M378.8,153.7c0-5.6,2.1-10.3,7.3-10.3c5.2,0,7.3,4.7,7.3,10.3c0,5.3-2.1,10.3-7.3,10.3C380.9,164,378.8,159,378.8,153.7
			 M369.9,153.7c0,10.2,5.6,16.6,16.1,16.6c10.5,0,16.1-6.4,16.1-16.6c0-10.3-5.5-16.6-16.1-16.6C375.5,137,369.9,143.3,369.9,153.7
			 M345.5,169.8h21.9v-6.4h-13.3v-25.8h-8.6V169.8z M317.3,153.7c0-5.6,2.1-10.3,7.3-10.3c5.2,0,7.3,4.7,7.3,10.3
			c0,5.3-2.1,10.3-7.3,10.3C319.3,164,317.3,159,317.3,153.7 M308.4,153.7c0,10.2,5.6,16.6,16.1,16.6c10.5,0,16.1-6.4,16.1-16.6
			c0-10.3-5.5-16.6-16.1-16.6C313.9,137,308.4,143.3,308.4,153.7 M273.9,169.8h7.9l-0.3-22h0.1l11.3,22h10.6v-32.2h-7.8l0.1,21.9
			h-0.1l-10.9-21.9h-10.9V169.8z M269.4,162.3c-2.3,0.9-5.2,1.7-8,1.7c-6.3,0-10.7-3.8-10.7-10.1c0-6,4-10.4,10.1-10.4
			c3,0,5.6,0.7,8.4,2.3l0.7-7c-3.1-0.9-6.3-1.7-9.5-1.7c-10.6,0-18.4,5.6-18.4,16.8c0,12.2,9.9,16.5,18.5,16.5
			c4.4,0,7.1-0.7,9.6-1.3L269.4,162.3z M214.6,169.8h23.2v-6.1h-14.6v-7.3h13.3v-6.1h-13.3v-6.6h14.1v-6.1h-22.7V169.8z
			 M194.7,169.8h8.6v-25.8h7.9v-6.4h-24.4v6.4h7.9V169.8z"/>
	</g>
</g>
</svg>
